<?xml version="1.0" standalone="no"?>
<!DOCTYPE svg PUBLIC "-//W3C//DTD SVG 20010904//EN"
 "http://www.w3.org/TR/2001/REC-SVG-20010904/DTD/svg10.dtd">
<svg version="1.0" xmlns="http://www.w3.org/2000/svg"
 width="182.000000pt" height="186.000000pt" viewBox="0 0 182.000000 186.000000"
 preserveAspectRatio="xMidYMid meet">

<g transform="translate(0.000000,186.000000) scale(0.100000,-0.100000)"
fill="#000000" stroke="none">
<path d="M0 930 l0 -930 910 0 910 0 0 930 0 930 -910 0 -910 0 0 -930z m44
259 c11 16 1737 16 1754 -1 17 -17 17 -519 0 -536 -18 -18 -1741 -17 -1756 1
-7 8 -12 111 -14 279 -2 146 0 262 3 256 4 -7 9 -6 13 1z m-27 -456 c-2 -32
-3 -6 -3 57 0 63 1 89 3 58 2 -32 2 -84 0 -115z"/>
<path d="M55 1167 c-3 -7 -4 -123 -3 -257 l3 -245 859 -3 c511 -1 864 2 869 7
5 5 6 111 2 260 l-8 251 -859 0 c-684 0 -860 -3 -863 -13z m230 -16 c-2 -5 23
-11 57 -13 35 -3 64 -10 66 -16 2 -7 7 -10 12 -7 4 3 6 -5 2 -17 -4 -15 -2
-19 7 -13 10 6 11 3 1 -15 -6 -12 -9 -28 -6 -36 3 -8 1 -25 -4 -39 -9 -24 -14
-25 -87 -25 -88 0 -98 4 -105 41 -4 22 -2 26 16 22 19 -4 19 -3 4 7 -27 16
-24 78 3 88 11 5 20 11 20 15 -3 21 0 28 9 22 6 -4 8 -10 5 -14z m121 -3 c-10
-6 -22 -6 -26 -2 -5 5 3 10 18 11 22 1 24 0 8 -9z m354 -63 c-6 -49 -8 -53 -9
-20 -1 37 8 89 14 83 2 -2 0 -30 -5 -63z m-199 45 c16 0 19 -7 19 -55 l0 -55
50 1 50 2 0 54 c0 50 1 53 25 53 24 0 25 -2 25 -69 0 -39 -5 -73 -11 -76 -6
-4 -8 -13 -5 -21 4 -11 2 -12 -14 -4 -10 5 -48 10 -83 10 -80 0 -90 10 -97
102 -4 54 -3 67 8 63 8 -3 22 -5 33 -5z m457 -12 c15 -15 16 -72 1 -96 -9 -14
-22 -16 -71 -14 -59 4 -61 3 -56 -20 4 -21 1 -24 -24 -20 l-28 4 0 79 0 79 83
0 c51 0 88 -5 95 -12z m294 -10 c4 -22 2 -23 -61 -22 -64 1 -64 1 -8 -3 52 -4
57 -6 57 -28 0 -13 -6 -26 -12 -28 -7 -3 -3 -6 8 -6 17 -1 20 -6 16 -26 -4
-24 -6 -25 -93 -25 l-89 0 0 80 0 80 89 0 c84 0 89 -1 93 -22z m75 -75 c-2
-21 -4 -6 -4 32 0 39 2 55 4 38 2 -18 2 -50 0 -70z m220 15 c2 -76 2 -78 -21
-78 -15 0 -26 7 -29 20 -4 16 -14 20 -46 20 -34 0 -41 -3 -41 -20 0 -16 -7
-20 -30 -20 l-30 0 0 80 0 81 98 -3 97 -3 2 -77z m26 -8 c3 -11 1 -18 -4 -14
-5 3 -9 12 -9 20 0 20 7 17 13 -6z m-1182 -13 c-10 -9 -11 -8 -5 6 3 10 9 15
12 12 3 -3 0 -11 -7 -18z m-231 -16 c0 -6 -4 -13 -10 -16 -5 -3 -10 1 -10 9 0
9 5 16 10 16 6 0 10 -4 10 -9z m537 -13 c-3 -8 -6 -5 -6 6 -1 11 2 17 5 13 3
-3 4 -12 1 -19z m580 -20 c-3 -7 -5 -2 -5 12 0 14 2 19 5 13 2 -7 2 -19 0 -25z
m201 5 c-10 -2 -28 -2 -40 0 -13 2 -5 4 17 4 22 1 32 -1 23 -4z m-228 -33 c0
-5 -2 -10 -4 -10 -3 0 -8 5 -11 10 -3 6 -1 10 4 10 6 0 11 -4 11 -10z m-1030
-105 c0 -21 -5 -25 -29 -25 -29 0 -30 -2 -33 -52 -3 -46 -6 -53 -25 -56 -22
-3 -23 0 -23 52 l0 56 -35 0 c-27 0 -35 4 -35 18 0 29 8 32 97 32 82 0 83 0
83 -25z m188 3 c3 -16 -5 -18 -57 -18 -34 0 -61 -4 -61 -10 0 -5 25 -10 55
-10 48 0 55 -2 55 -20 0 -18 -7 -20 -55 -20 -30 0 -55 -4 -55 -10 0 -6 27 -10
61 -10 52 0 60 -2 57 -17 -3 -15 -16 -18 -86 -21 l-82 -3 0 81 0 81 82 -3 c70
-3 83 -6 86 -20z m161 16 c35 -7 52 -45 33 -75 -8 -12 -8 -20 -2 -24 6 -3 10
-17 10 -31 0 -19 -5 -24 -25 -24 -18 0 -25 5 -25 20 0 17 -7 20 -45 20 -38 0
-45 -3 -45 -20 0 -15 -7 -20 -25 -20 -24 0 -25 2 -25 73 0 41 3 77 7 80 8 9
100 9 142 1z m156 -41 c11 -23 23 -42 26 -43 3 0 14 19 25 43 18 39 22 42 59
42 l40 0 3 -77 c3 -78 3 -78 -23 -78 -24 0 -25 3 -25 58 l-1 57 -30 -57 c-21
-41 -35 -58 -49 -58 -14 0 -28 17 -49 58 l-30 57 -1 -58 c0 -55 -1 -58 -22
-55 -21 3 -23 9 -26 67 -4 85 0 93 45 89 34 -3 40 -8 58 -45z m215 -33 c0 -79
0 -80 -25 -80 -24 0 -25 2 -25 73 0 79 3 87 32 87 16 0 18 -9 18 -80z m136 24
l39 -57 3 57 c3 53 5 57 25 54 20 -3 22 -9 25 -81 l3 -78 -43 3 c-39 3 -46 8
-80 57 l-38 54 0 -56 c0 -54 -1 -57 -25 -57 -25 0 -25 1 -25 80 l0 80 39 0
c36 0 41 -4 77 -56z m288 -6 c52 -93 53 -98 22 -98 -15 0 -29 7 -32 15 -4 11
-21 15 -55 15 -35 0 -51 -4 -55 -15 -7 -17 -54 -21 -54 -5 0 13 24 61 57 113
18 29 30 37 53 37 25 0 33 -8 64 -62z m114 -20 c3 -78 3 -78 -23 -78 -25 0
-25 1 -25 81 0 78 1 80 23 77 20 -3 22 -9 25 -80z m173 72 c20 -11 27 -50 8
-50 -6 0 -3 -7 5 -16 9 -8 16 -24 16 -34 0 -36 -28 -50 -95 -50 -44 0 -68 5
-79 16 -20 19 -20 33 -1 40 13 5 13 8 0 21 -38 38 3 83 76 83 28 0 59 -5 70
-10z"/>
<path d="M335 1079 c33 -5 66 -11 73 -14 6 -2 12 -1 12 4 0 10 -62 21 -110 20
-25 -1 -17 -4 25 -10z"/>
<path d="M280 1020 c0 -5 20 -10 45 -10 25 0 45 5 45 10 0 6 -20 10 -45 10
-25 0 -45 -4 -45 -10z"/>
<path d="M890 1073 c0 -15 7 -18 45 -15 58 5 55 26 -3 30 -35 3 -42 0 -42 -15z"/>
<path d="M1188 1023 c7 -3 16 -2 19 1 4 3 -2 6 -13 5 -11 0 -14 -3 -6 -6z"/>
<path d="M1470 1076 c0 -12 11 -16 46 -16 59 0 55 24 -4 28 -33 2 -42 0 -42
-12z"/>
<path d="M530 805 c0 -11 12 -15 45 -15 33 0 45 4 45 15 0 11 -12 15 -45 15
-33 0 -45 -4 -45 -15z"/>
<path d="M1342 805 c-16 -35 -16 -35 13 -35 28 0 32 17 12 44 -12 17 -14 16
-25 -9z"/>
<path d="M1600 820 c0 -5 21 -10 46 -10 27 0 43 4 39 10 -3 6 -24 10 -46 10
-21 0 -39 -4 -39 -10z"/>
<path d="M1600 760 c0 -5 20 -10 45 -10 25 0 45 5 45 10 0 6 -20 10 -45 10
-25 0 -45 -4 -45 -10z"/>
</g>
</svg>
